<svg width="90" height="38" viewBox="0 0 90 38" fill="none" xmlns="http://www.w3.org/2000/svg">
<path fill-rule="evenodd" clip-rule="evenodd" d="M54.1003 3.0692C54.1003 0.644076 54.1184 0.255212 54.2374 0.136018C54.3552 0.0181348 54.6974 -0.00109005 56.6591 4.59609e-05C57.9447 0.000832431 59.001 0.0376202 59.0746 0.0841967C59.1857 0.154455 59.2094 0.596887 59.2308 3.0096C59.2477 4.91592 59.2252 5.91002 59.1622 6.02764C59.0718 6.19682 58.9822 6.20311 56.6747 6.20311C54.3974 6.20311 54.2766 6.1949 54.1906 6.03411C54.1337 5.92767 54.1003 4.82932 54.1003 3.0692ZM30.302 12.4353C32.5664 11.1428 35.0263 10.3212 37.4319 10.0537C38.4022 9.94584 40.5845 10.0092 41.5798 10.1742C45.6296 10.8454 48.4719 13.1639 49.6402 16.7493C50.1967 18.4567 50.203 18.5482 50.2559 25.662C50.3036 32.0684 50.3062 32.1469 50.487 32.3906C50.6032 32.5474 50.794 32.6642 51.0106 32.7113C51.2115 32.7549 51.3454 32.7705 51.4354 32.8417C51.6322 32.9973 51.6188 33.4188 51.6365 34.9812L51.6599 37.0441L51.458 37.1766C51.347 37.2495 50.8545 37.3548 50.3635 37.4107C49.3632 37.5245 48.7166 37.4548 47.895 37.1445C46.5062 36.6199 45.9641 35.8527 45.837 34.232L45.7839 33.5549L45.0332 34.2783C43.3707 35.8805 41.0635 37.0557 38.6443 37.5327C37.6196 37.7347 35.6949 37.7989 34.7037 37.6643C30.7246 37.1234 27.7158 34.4976 26.9989 30.9403C26.8002 29.9548 26.8619 28.1977 27.1276 27.2792C28.1315 23.8076 31.432 21.5125 36.207 20.9657C37.3673 20.8328 40.3169 20.9065 41.4463 21.0967C42.5841 21.2883 43.4578 21.4827 44.2761 21.7265C44.6566 21.8398 45.0039 21.9325 45.048 21.9325C45.1893 21.9325 45.0699 18.8108 44.9059 18.2186C44.4538 16.5855 43.4079 15.2626 42.0483 14.6044C40.9017 14.0493 40.3412 13.9427 38.5664 13.9422C37.2557 13.9419 36.9216 13.971 36.2101 14.1472C34.5593 14.5563 32.9142 15.2915 31.24 16.3681C30.4664 16.8656 30.32 16.9609 30.2129 16.928C30.1866 16.9199 30.1627 16.9041 30.1324 16.8847C29.9416 16.7617 28.5171 13.902 28.5459 13.6995C28.5774 13.4784 28.9713 13.1948 30.302 12.4353ZM64.6145 17.4322C66.5966 13.4277 70.3339 10.7794 74.8267 10.1957C75.5329 10.1039 77.6777 10.1474 78.504 10.2703C81.1701 10.6668 83.6558 11.8948 85.61 13.7811C87.4824 15.5883 88.7652 17.8118 89.388 20.3291C89.6637 21.4438 89.6889 21.6016 89.79 22.8499C89.9462 24.7763 89.6261 27.0839 88.9473 28.9234C87.3786 33.1749 83.7514 36.3678 79.4131 37.316C72.6049 38.8039 66.009 35.0902 63.8301 28.5423C63.2519 26.8051 63.1387 26.0446 63.1387 23.8987C63.1387 22.226 63.1646 21.857 63.3373 21.0587C63.6281 19.7143 63.9816 18.7106 64.6145 17.4322ZM54.205 37.4697C54.0527 37.3172 54.0527 10.4802 54.205 10.3277C54.2814 10.2512 54.9548 10.2228 56.6891 10.2228C58.9522 10.2228 59.0729 10.2311 59.1588 10.3919C59.2199 10.5062 59.2492 14.8718 59.2492 23.8987C59.2492 32.9256 59.2199 37.2911 59.1588 37.4055C59.0729 37.5662 58.9522 37.5745 56.6891 37.5745C54.9548 37.5745 54.2814 37.5461 54.205 37.4697ZM85.1758 24.9575C85.6839 19.8968 82.6328 15.1903 78.2115 14.2147C75.374 13.5887 72.5524 14.4964 70.4517 16.7113C69.1093 18.1267 68.2246 19.9111 67.8415 21.9758C67.6177 23.182 67.6984 25.5235 68.0034 26.677C69.0786 30.7425 72.2479 33.5252 76.0048 33.7025C78.4814 33.8194 80.4984 33.0078 82.3318 31.1564C84.0125 29.4593 84.9231 27.4745 85.1758 24.9575ZM44.8279 25.2254C44.2923 25.0035 42.8851 24.6424 41.839 24.4584C40.4627 24.2162 37.9838 24.156 36.8687 24.3375C33.5887 24.8713 31.7594 26.5257 31.7594 28.9579C31.7594 30.298 32.1354 31.2197 33.0687 32.1671C34.265 33.3815 36.0221 33.9199 38.1388 33.7204C39.6102 33.5818 40.8765 33.1706 42.256 32.3834C43.5194 31.6624 44.4535 30.7669 44.9271 29.8226C45.0993 29.4792 45.1116 29.3173 45.1116 27.3987V25.3429L44.8279 25.2254ZM0.20454 10.2572L7.942 10.2367C14.8582 10.2184 15.6922 10.223 15.7998 10.2794C15.936 10.351 16.0172 10.5584 15.9585 10.6855C15.9266 10.7548 13.3631 13.8508 13.0957 14.143L12.9925 14.2558H8.45871H3.92491V16.6166C3.92491 18.2807 3.91152 19.0027 3.87959 19.0632C3.85467 19.1104 3.78414 19.2061 3.72284 19.2759C3.66158 19.3456 2.92588 20.2384 2.08801 21.2598C1.17933 22.3675 0.523389 23.1328 0.462451 23.1562C0.292507 23.2217 0.0954926 23.1124 0.0411508 22.9225C0.00886133 22.8097 -0.000404512 21.0304 0.00821411 16.6048L0.0202315 10.444C0.0202315 10.444 0.0202315 10.3803 0.0606945 10.3188C0.101158 10.2572 0.20454 10.2572 0.20454 10.2572ZM0.0359312 34.2615C0.070608 34.1698 20.1946 10.4129 20.3608 10.2675C20.4344 10.2031 20.5519 10.1957 21.5126 10.1957C22.6301 10.1957 22.7736 10.2159 22.8365 10.3821C22.8503 10.4186 22.8616 11.1719 22.8616 12.0559C22.8616 13.5053 22.8548 13.6732 22.7925 13.7634C22.6154 14.0196 2.73218 37.5765 2.65607 37.6202C2.54682 37.683 0.38274 37.6936 0.223234 37.6322C0.0135146 37.5514 0 37.4423 0 35.8314C0 35.0201 0.0161448 34.3137 0.0359312 34.2615ZM19.0142 27.532C19.0484 27.4407 22.0837 25.0454 22.3921 24.8661C22.5366 24.7822 22.68 24.8019 22.8009 24.9223C22.8811 25.0022 22.8818 25.0571 22.8818 31.2595V37.5161L22.7863 37.5945C22.693 37.6711 22.5105 37.6729 14.8986 37.6729H7.10648L7.01281 37.5838C6.94803 37.5221 6.91918 37.4484 6.91918 37.3446C6.91918 37.2099 7.05659 37.0161 8.2583 35.4549C8.99485 34.4982 9.62652 33.6923 9.662 33.6641C9.71282 33.6238 10.7131 33.6129 14.3519 33.6129H18.9772V30.6217C18.9772 28.9127 18.993 27.5883 19.0142 27.532Z" fill="#0D1E3A"/>
</svg>
